<?xml version="1.0" encoding="UTF-8" standalone="no"?>
<!-- Created with Inkscape (http://www.inkscape.org/) -->

<svg
   xmlns:dc="http://purl.org/dc/elements/1.1/"
   xmlns:cc="http://creativecommons.org/ns#"
   xmlns:rdf="http://www.w3.org/1999/02/22-rdf-syntax-ns#"
   xmlns:svg="http://www.w3.org/2000/svg"
   xmlns="http://www.w3.org/2000/svg"
   xmlns:sodipodi="http://sodipodi.sourceforge.net/DTD/sodipodi-0.dtd"
   xmlns:inkscape="http://www.inkscape.org/namespaces/inkscape"
   version="1.1"
   id="svg2"
   xml:space="preserve"
   width="297mm"
   height="103mm"
   viewBox="0 0 1122.5197 389.29129"
   sodipodi:docname="loghi_profacere_v5.svg"
   inkscape:version="0.92.3 (2405546, 2018-03-11)"
   inkscape:export-filename="D:\Documenti\Profacere\Grafica - media\Logo profacere\prova_loghi_profacere.png"
   inkscape:export-xdpi="150.00999"
   inkscape:export-ydpi="150.00999"><metadata
     id="metadata8"><rdf:RDF><cc:Work
         rdf:about=""><dc:format>image/svg+xml</dc:format><dc:type
           rdf:resource="http://purl.org/dc/dcmitype/StillImage" /><dc:title></dc:title></cc:Work></rdf:RDF></metadata><defs
     id="defs6"><marker
       inkscape:stockid="Arrow1Lstart"
       orient="auto"
       refY="0"
       refX="0"
       id="Arrow1Lstart"
       style="overflow:visible"
       inkscape:isstock="true"><path
         id="path2591"
         d="M 0,0 5,-5 -12.5,0 5,5 Z"
         style="fill-rule:evenodd;stroke:#000000;stroke-width:1.00000003pt"
         transform="matrix(0.8,0,0,0.8,10,0)"
         inkscape:connector-curvature="0" /></marker><clipPath
       clipPathUnits="userSpaceOnUse"
       id="clipPath18"><path
         d="M 546,0 H 9919 V 3072 H 546 V 0"
         id="path16"
         inkscape:connector-curvature="0" /></clipPath><clipPath
       clipPathUnits="userSpaceOnUse"
       id="clipPath18-6"><path
         d="M 546,0 H 9919 V 3072 H 546 V 0"
         id="path16-2"
         inkscape:connector-curvature="0" /></clipPath></defs><sodipodi:namedview
     pagecolor="#ffffff"
     bordercolor="#666666"
     borderopacity="1"
     objecttolerance="10"
     gridtolerance="10"
     guidetolerance="10"
     inkscape:pageopacity="1"
     inkscape:pageshadow="2"
     inkscape:window-width="1366"
     inkscape:window-height="705"
     id="namedview4"
     showgrid="false"
     inkscape:zoom="0.3808591"
     inkscape:cx="438.89398"
     inkscape:cy="137.47669"
     inkscape:window-x="-8"
     inkscape:window-y="-8"
     inkscape:window-maximized="1"
     inkscape:current-layer="g10"
     showguides="true"
     inkscape:guide-bbox="true"
     inkscape:snap-others="true"
     inkscape:snap-nodes="false"
     inkscape:document-units="mm"
     units="mm"
     inkscape:measure-start="349.867,103.385"
     inkscape:measure-end="350.195,76.4719"
     height="110mm" /><g
     id="g10"
     inkscape:groupmode="layer"
     inkscape:label="OF ProFacere"
     transform="matrix(0.08,0,0,-0.08,21.333333,322.62456)">









<g
   style="fill:#000000"
   id="g1799-1-7"
   transform="matrix(0.7409771,0,0,0.7409771,-667.26264,6971.4124)" /><path
   inkscape:connector-curvature="0"
   id="path5293-35-1-3-5-5-2"
   d="m 5519.472,3199.2035 h -88.5263 l -114.3768,-399.1658 h -0.3052 L 4400.1335,-397.45598 c 130.8161,32.21537 255.4378,82.98288 367.4212,149.44101 L 5637.27,2841.3356 h -0.7458 l 95.6767,339.8848 z"
   style="color:#000000;font-style:normal;font-variant:normal;font-weight:normal;font-stretch:normal;font-size:medium;line-height:normal;font-family:sans-serif;font-variant-ligatures:normal;font-variant-position:normal;font-variant-caps:normal;font-variant-numeric:normal;font-variant-alternates:normal;font-feature-settings:normal;text-indent:0;text-align:start;text-decoration:none;text-decoration-line:none;text-decoration-style:solid;text-decoration-color:#000000;letter-spacing:normal;word-spacing:normal;text-transform:none;writing-mode:lr-tb;direction:ltr;text-orientation:mixed;dominant-baseline:auto;baseline-shift:baseline;text-anchor:start;white-space:normal;shape-padding:0;clip-rule:nonzero;display:inline;overflow:visible;visibility:visible;opacity:1;isolation:auto;mix-blend-mode:normal;color-interpolation:sRGB;color-interpolation-filters:linearRGB;solid-color:#000000;solid-opacity:1;vector-effect:none;fill:#ffffff;fill-opacity:1;fill-rule:nonzero;stroke:none;stroke-width:0;stroke-linecap:square;stroke-linejoin:miter;stroke-miterlimit:10;stroke-dasharray:none;stroke-dashoffset:0;stroke-opacity:0.96862745;paint-order:stroke markers fill;color-rendering:auto;image-rendering:auto;shape-rendering:auto;text-rendering:auto;enable-background:accumulate"
   sodipodi:nodetypes="cccccccccc" /><path
   sodipodi:nodetypes="ccccccccc"
   inkscape:connector-curvature="0"
   id="path1773-74-1-6-3-8-7"
   d="m 4851.4347,2475.0462 -49.8503,-174.4917 h 115.6481 1704.8487 56.4712 l 49.8509,174.4917 H 6622.0812 4917.2325 Z"
   style="color:#000000;font-style:normal;font-variant:normal;font-weight:normal;font-stretch:normal;font-size:medium;line-height:normal;font-family:sans-serif;font-variant-ligatures:normal;font-variant-position:normal;font-variant-caps:normal;font-variant-numeric:normal;font-variant-alternates:normal;font-feature-settings:normal;text-indent:0;text-align:start;text-decoration:none;text-decoration-line:none;text-decoration-style:solid;text-decoration-color:#000000;letter-spacing:normal;word-spacing:normal;text-transform:none;writing-mode:lr-tb;direction:ltr;text-orientation:mixed;dominant-baseline:auto;baseline-shift:baseline;text-anchor:start;white-space:normal;shape-padding:0;clip-rule:nonzero;display:inline;overflow:visible;visibility:visible;opacity:1;isolation:auto;mix-blend-mode:normal;color-interpolation:sRGB;color-interpolation-filters:linearRGB;solid-color:#000000;solid-opacity:1;vector-effect:none;fill:#ffffff;fill-opacity:1;fill-rule:nonzero;stroke:#ffffff;stroke-width:65.56045532;stroke-linecap:square;stroke-linejoin:miter;stroke-miterlimit:10;stroke-dasharray:none;stroke-dashoffset:0;stroke-opacity:0.96862745;color-rendering:auto;image-rendering:auto;shape-rendering:auto;text-rendering:auto;enable-background:accumulate" /><g
   id="g1779-1-6-8-1-4-2"
   transform="matrix(0.95108901,0,0,0.95108901,799.9282,-483.37252)"
   style="stroke:#ff6600;stroke-width:53.51917648;stroke-miterlimit:10;stroke-dasharray:none"><path
     inkscape:connector-curvature="0"
     id="path1775-0-2-0-5-0-3"
     d="M 3730.2902,1701.3712 V 1383.1726"
     style="fill:none;stroke:#ff6600;stroke-width:53.51917648;stroke-linecap:round;stroke-linejoin:miter;stroke-miterlimit:10;stroke-dasharray:none;stroke-opacity:1" /><path
     inkscape:connector-curvature="0"
     id="path1777-4-1-5-6-6-9"
     d="m 3889.3892,1542.2719 h -318.198"
     style="fill:none;stroke:#ff6600;stroke-width:53.51917648;stroke-linecap:round;stroke-linejoin:miter;stroke-miterlimit:10;stroke-dasharray:none;stroke-opacity:1" /></g><g
   style="fill:#ffffff;stroke:#ffffff;stroke-width:31.87959099;stroke-miterlimit:4;stroke-dasharray:none"
   id="g1819-5-3-6-1-0-6"
   transform="matrix(1.0282512,0,0,1.0282512,-710.81953,7149.9437)"><g
     transform="translate(-24.999999)"
     style="fill:#ffffff;stroke:#ffffff;stroke-width:31.87959099;stroke-miterlimit:4;stroke-dasharray:none"
     id="g1805-3-9-5-3-7-3"><path
       d="m 1799.7448,-5913.667 -214.6337,-750 h -288 l 583.8038,2040 h 585 q 348,0 513.3561,-156 168.3562,-156 75.6345,-480 -62.6731,-219 -212.7413,-366 -150.0682,-147 -353.6731,-219 -199.7463,-69 -421.7463,-69 z m 951.7265,642 q 63.5316,222 -30.7123,312 -93.3855,93 -327.3855,93 h -294 l -230.9459,-807 h 279 q 219,0 376.3317,99 160.3316,99 227.712,303 z"
       style="font-style:normal;font-variant:normal;font-weight:normal;font-stretch:normal;font-size:3000px;line-height:305.24380493px;font-family:Mosk;-inkscape-font-specification:Mosk;font-variant-ligatures:normal;font-variant-caps:normal;font-variant-numeric:normal;font-feature-settings:normal;text-align:start;writing-mode:lr-tb;text-orientation:upright;text-anchor:start;fill:#ffffff;fill-opacity:1;stroke:#ffffff;stroke-width:31.87959099;stroke-linecap:round;stroke-linejoin:round;stroke-miterlimit:4;stroke-dasharray:none;stroke-dashoffset:0;stroke-opacity:1;paint-order:stroke markers fill"
       id="path1801-28-6-5-1-2-7"
       inkscape:connector-curvature="0" /><path
       d="m 4028.1902,-5439.667 q -114,0 -280.322,-78 -165.4633,-75 -310.3706,-183 l -275.5897,-963 h -288 l 416.3894,1455 h 162 l 25.1758,-237 q 126.8975,87 286.3609,162 162.4633,75 267.4633,75 z"
       style="font-style:normal;font-variant:normal;font-weight:normal;font-stretch:normal;font-size:3000px;line-height:305.24380493px;font-family:Mosk;-inkscape-font-specification:Mosk;font-variant-ligatures:normal;font-variant-caps:normal;font-variant-numeric:normal;font-feature-settings:normal;text-align:start;writing-mode:lr-tb;text-orientation:upright;text-anchor:start;fill:#ffffff;fill-opacity:1;stroke:#ffffff;stroke-width:31.87959099;stroke-linecap:round;stroke-linejoin:round;stroke-miterlimit:4;stroke-dasharray:none;stroke-dashoffset:0;stroke-opacity:1;paint-order:stroke markers fill"
       id="path1803-4-4-3-4-9-8"
       inkscape:connector-curvature="0" /></g><g
     style="fill:#ffffff;stroke:#ffffff;stroke-width:31.87959099;stroke-miterlimit:4;stroke-dasharray:none"
     transform="translate(-24.999999)"
     id="g1817-5-0-3-7-9-9"><path
       d="m 6721.7705,-5412.5835 q -198,0 -448.9145,-99 l -14.409,228 q 93.7716,54 260.2859,90 170.3906,39 272.3906,39 165,0 279.8474,-69 115.7237,-66 156.552,-183 43.8283,-117 3.5232,-255 l -288.269,-987 h -201 l 4.3051,138 q -102.0287,-72 -233.9241,-123 -131.8953,-51 -242.8953,-51 -249,0 -342.0759,123 -92.1998,126 -31.7421,333 62.21,213 240.3817,330 182.0479,120 425.0479,120 h 345 q 51.6957,177 12.8578,270 -34.9617,96 -196.9617,96 z m -222.9727,-558 q -126,0 -219.905,-75 -93.9049,-75 -125.448,-183 -27.1621,-93 15.6853,-162 43.7237,-66 160.7237,-66 105,0 218.8953,51 114.7716,54 218.1813,141 l 85.8674,294 z"
       style="font-style:normal;font-variant:normal;font-weight:500;font-stretch:normal;font-size:3000px;line-height:312.5px;font-family:Mosk;-inkscape-font-specification:'Mosk Medium';font-variant-ligatures:normal;font-variant-caps:normal;font-variant-numeric:normal;font-feature-settings:normal;text-align:start;writing-mode:lr-tb;text-orientation:upright;text-anchor:start;fill:#ffffff;fill-opacity:1;stroke:#ffffff;stroke-width:31.87959099;stroke-linecap:round;stroke-linejoin:round;stroke-miterlimit:4;stroke-dasharray:none;stroke-dashoffset:0;stroke-opacity:1;paint-order:stroke markers fill"
       id="path1807-7-4-0-5-7-9"
       inkscape:connector-curvature="0" /><path
       d="m 7981.7973,-6441.5835 q 123,0 220.0095,24 97.0096,24 216.905,75 l 26.5424,-207 q -107.524,-60 -271.9146,-99 -161.3905,-39 -263.3905,-39 -219,0 -355.9617,96 -133.9617,96 -173.1422,270 -36.1806,174 30.4104,402 65.7148,225 206.5343,399 140.8194,174 333.8578,270 196.0383,96 418.0383,96 99,0 236.7332,-42 138.6095,-39 211.0856,-99 l -143.5815,-204 q -108.1047,51 -188.0951,75 -76.9904,24 -190.9904,24 -198,0 -360.9337,-147 -159.9337,-147 -227.7723,-369 -68.3434,-234 2.7229,-381 71.9426,-144 272.9426,-144 z"
       style="font-style:normal;font-variant:normal;font-weight:500;font-stretch:normal;font-size:3000px;line-height:312.5px;font-family:Mosk;-inkscape-font-specification:'Mosk Medium';font-variant-ligatures:normal;font-variant-caps:normal;font-variant-numeric:normal;font-feature-settings:normal;text-align:start;writing-mode:lr-tb;text-orientation:upright;text-anchor:start;fill:#ffffff;fill-opacity:1;stroke:#ffffff;stroke-width:31.87959099;stroke-linecap:round;stroke-linejoin:round;stroke-miterlimit:4;stroke-dasharray:none;stroke-dashoffset:0;stroke-opacity:1;paint-order:stroke markers fill"
       id="path1809-0-0-1-9-4-9"
       inkscape:connector-curvature="0" /><path
       d="m 9725.2171,-5154.5835 q 314.9999,0 411.7899,-213 100.666,-210 4.285,-540 l -22.782,-78 H 9086.5104 q -44.21,-213 36.8659,-336 84.0759,-123 318.0759,-123 114,0 205.8857,27 95.762,30 269.7907,102 l 28.6662,-210 q -310.4384,-159 -574.4384,-159 -381,0 -524.5424,207 -143.5424,207 -41.0273,558 65.7148,225 200.5343,399 134.8194,174 318.8578,270 187.0383,96 400.0383,96 z m -80.8482,-246 q -165,0 -294.6669,-105 -125.7907,-102 -200.2388,-285 h 747 q 56.9057,390 -252.0943,390 z"
       style="font-style:normal;font-variant:normal;font-weight:500;font-stretch:normal;font-size:3000px;line-height:312.5px;font-family:Mosk;-inkscape-font-specification:'Mosk Medium';font-variant-ligatures:normal;font-variant-caps:normal;font-variant-numeric:normal;font-feature-settings:normal;text-align:start;writing-mode:lr-tb;text-orientation:upright;text-anchor:start;fill:#ffffff;fill-opacity:1;stroke:#ffffff;stroke-width:31.87959099;stroke-linecap:round;stroke-linejoin:round;stroke-miterlimit:4;stroke-dasharray:none;stroke-dashoffset:0;stroke-opacity:1;paint-order:stroke markers fill"
       id="path1811-6-7-7-2-6-6"
       inkscape:connector-curvature="0" /><path
       d="m 11356.078,-5424.5835 q -114,0 -280.781,-78 -165.905,-75 -311.448,-183 l -281.259,-963 h -288 l 424.956,1455 h 162 l 23.78,-237 q 127.41,87 287.315,162 162.905,75 267.905,75 z"
       style="font-style:normal;font-variant:normal;font-weight:500;font-stretch:normal;font-size:3000px;line-height:312.5px;font-family:Mosk;-inkscape-font-specification:'Mosk Medium';font-variant-ligatures:normal;font-variant-caps:normal;font-variant-numeric:normal;font-feature-settings:normal;text-align:start;writing-mode:lr-tb;text-orientation:upright;text-anchor:start;fill:#ffffff;fill-opacity:1;stroke:#ffffff;stroke-width:31.87959099;stroke-linecap:round;stroke-linejoin:round;stroke-miterlimit:4;stroke-dasharray:none;stroke-dashoffset:0;stroke-opacity:1;paint-order:stroke markers fill"
       id="path1813-18-0-3-6-9-4"
       inkscape:connector-curvature="0" /><path
       d="m 12250.608,-5154.5835 q 315,0 411.79,-213 100.666,-210 4.285,-540 l -22.782,-78 h -1032 q -44.21,-213 36.866,-336 84.076,-123 318.076,-123 114,0 205.886,27 95.762,30 269.791,102 l 28.666,-210 q -310.439,-159 -574.439,-159 -381,0 -524.542,207 -143.542,207 -41.027,558 65.715,225 200.534,399 134.819,174 318.858,270 187.038,96 400.038,96 z m -80.848,-246 q -165,0 -294.667,-105 -125.791,-102 -200.239,-285 h 747 q 56.906,390 -252.094,390 z"
       style="font-style:normal;font-variant:normal;font-weight:500;font-stretch:normal;font-size:3000px;line-height:312.5px;font-family:Mosk;-inkscape-font-specification:'Mosk Medium';font-variant-ligatures:normal;font-variant-caps:normal;font-variant-numeric:normal;font-feature-settings:normal;text-align:start;writing-mode:lr-tb;text-orientation:upright;text-anchor:start;fill:#ffffff;fill-opacity:1;stroke:#ffffff;stroke-width:31.87959099;stroke-linecap:round;stroke-linejoin:round;stroke-miterlimit:4;stroke-dasharray:none;stroke-dashoffset:0;stroke-opacity:1;paint-order:stroke markers fill"
       id="path1815-6-5-7-5-3-2"
       inkscape:connector-curvature="0" /></g></g><path
   sodipodi:nodetypes="ccccccccccc"
   id="path1825-3-2-9-9-2-73"
   d="m 5050.016,3219.4237 -51.0178,-178.5757 h 118.3566 7447.9192 80.02 l 51.02,178.5757 h -131.04 -6826.5307 -11.3863 -610.0022 z"
   style="color:#000000;font-style:normal;font-variant:normal;font-weight:normal;font-stretch:normal;font-size:medium;line-height:normal;font-family:sans-serif;font-variant-ligatures:normal;font-variant-position:normal;font-variant-caps:normal;font-variant-numeric:normal;font-variant-alternates:normal;font-feature-settings:normal;text-indent:0;text-align:start;text-decoration:none;text-decoration-line:none;text-decoration-style:solid;text-decoration-color:#000000;letter-spacing:normal;word-spacing:normal;text-transform:none;writing-mode:lr-tb;direction:ltr;text-orientation:mixed;dominant-baseline:auto;baseline-shift:baseline;text-anchor:start;white-space:normal;shape-padding:0;clip-rule:nonzero;display:inline;overflow:visible;visibility:visible;opacity:1;isolation:auto;mix-blend-mode:normal;color-interpolation:sRGB;color-interpolation-filters:linearRGB;solid-color:#000000;solid-opacity:1;vector-effect:none;fill:#ffffff;fill-opacity:1;fill-rule:nonzero;stroke:#ffffff;stroke-width:65.56045532;stroke-linecap:square;stroke-linejoin:miter;stroke-miterlimit:10;stroke-dasharray:none;stroke-dashoffset:0;stroke-opacity:0.96862745;color-rendering:auto;image-rendering:auto;shape-rendering:auto;text-rendering:auto;enable-background:accumulate"
   inkscape:connector-curvature="0" /><g
   style="stroke:#ff6600;stroke-width:12.75183582;stroke-linecap:round;stroke-linejoin:round;stroke-miterlimit:4;stroke-dasharray:none"
   id="g13284-8-4-24"
   transform="matrix(1.0774152,0,0,1.0774152,-17273.779,24541.244)"><path
     style="opacity:1;fill:#ff6600;fill-opacity:1;stroke:#ff6600;stroke-width:12.75183582;stroke-linecap:round;stroke-linejoin:round;stroke-miterlimit:4;stroke-dasharray:none;stroke-dashoffset:0;stroke-opacity:0.97165988;paint-order:stroke markers fill"
     d="m 20059.579,-21011.821 c -267.2,-2.225 -530.779,-136.472 -683.955,-356.479 -118.157,-164.512 -181.983,-375.652 -139.95,-577.108 58.325,-298.656 305.179,-552.989 604.804,-612.465 136.361,-28.334 282.794,-13.497 410.242,41.011 -52.931,-11.109 -106.764,-18.162 -161.09,-15.745 -71.686,-3.408 -143.56,5.149 -211.259,29.601 -194.333,61.544 -356.408,214.467 -428.11,405.409 -32.327,82.073 -50.546,169.967 -45.89,258.419 -2.478,83.206 4.194,167.39 33.607,245.951 75.786,233.733 282.246,415.947 521.019,469.775 245.051,60.347 517.144,-13.444 700.21,-186.661 103.925,-93.373 183.566,-213.075 225.941,-346.453 11.19,-30.131 17.108,-65.808 28.1,-93.859 -30.372,258.862 -194.169,496.393 -419.642,625.213 -131.282,76.558 -282.091,115.916 -434.027,113.391 z"
     id="path13278-7-2-5"
     inkscape:connector-curvature="0" /><path
     style="opacity:1;fill:#ff6600;fill-opacity:1;stroke:#ff6600;stroke-width:12.75183582;stroke-linecap:round;stroke-linejoin:round;stroke-miterlimit:4;stroke-dasharray:none;stroke-dashoffset:0;stroke-opacity:0.97165988;paint-order:stroke markers fill"
     d="m 20119.605,-21145.827 c -172.574,-2.562 -346.558,-69.698 -468.52,-193.013 1.879,-5.952 18.355,12.284 23.391,14.383 99.233,72.865 219.13,120.342 342.168,129.639 85.978,2.872 173.737,3.18 256.022,-25.567 197.736,-58.89 364.647,-212.701 435.328,-407.079 85.468,-219.956 43.102,-484.452 -109.208,-665.002 -91.88,-100.729 -188.991,-203.627 -317.142,-257.508 -93.931,-42.194 -196.615,-66.881 -299.998,-61.254 -85.969,-3.428 -171.912,9.817 -252.565,39.894 -175.605,59.932 -323.403,185.974 -424.22,340.27 -4.563,8.651 -18.78,21.844 -8.599,2.822 127.047,-269.865 402.458,-464.414 700.687,-487.076 254.65,-22.655 517.427,77.939 691.876,264.682 216.349,240.89 257.072,618.143 103.677,902.248 -116.417,223.792 -350.751,381.716 -602.942,400.264 -23.262,1.913 -46.618,2.642 -69.955,2.297 z"
     id="path13280-0-9-7"
     inkscape:connector-curvature="0" /></g></g></svg>